<svg width="198" height="74" viewBox="0 0 198 74" fill="none" xmlns="http://www.w3.org/2000/svg">
<path d="M73.1276 15.6L73.3876 13.2L71.3876 14.64L70.3876 12.92L72.6076 11.94L70.3876 10.92L71.3876 9.2L73.3876 10.64L73.1276 8.24H75.1276L74.8676 10.62L76.8676 9.2L77.8676 10.92L75.6076 11.94L77.8676 12.92L76.8676 14.64L74.8676 13.2L75.1276 15.6H73.1276Z" fill="#2F282E"/>
<path d="M183.722 15.6L183.982 13.2L181.982 14.64L180.982 12.92L183.202 11.94L180.982 10.92L181.982 9.2L183.982 10.64L183.722 8.24H185.722L185.462 10.62L187.462 9.2L188.462 10.92L186.202 11.94L188.462 12.92L187.462 14.64L185.462 13.2L185.722 15.6H183.722Z" fill="#2F282E"/>
<path d="M126.641 55.9385L126.901 53.5385L124.901 54.9785L123.901 53.2585L126.121 52.2785L123.901 51.2585L124.901 49.5385L126.901 50.9785L126.641 48.5785H128.641L128.381 50.9585L130.381 49.5385L131.381 51.2585L129.121 52.2785L131.381 53.2585L130.381 54.9785L128.381 53.5385L128.641 55.9385H126.641Z" fill="#2F282E"/>
<path d="M155.182 36.8308L155.442 34.4308L153.442 35.8708L152.442 34.1508L154.662 33.1708L152.442 32.1508L153.442 30.4308L155.442 31.8708L155.182 29.4708H157.182L156.922 31.8508L158.922 30.4308L159.922 32.1508L157.662 33.1708L159.922 34.1508L158.922 35.8708L156.922 34.4308L157.182 36.8308H155.182Z" fill="#2F282E"/>
<path d="M99.8842 36.8308L100.144 34.4308L98.1442 35.8708L97.1442 34.1508L99.3642 33.1708L97.1442 32.1508L98.1442 30.4308L100.144 31.8708L99.8842 29.4708H101.884L101.624 31.8508L103.624 30.4308L104.624 32.1508L102.364 33.1708L104.624 34.1508L103.624 35.8708L101.624 34.4308L101.884 36.8308H99.8842Z" fill="#2F282E"/>
<path d="M37.4518 36.8308L37.7118 34.4308L35.7118 35.8708L34.7118 34.1508L36.9318 33.1708L34.7118 32.1508L35.7118 30.4308L37.7118 31.8708L37.4518 29.4708H39.4518L39.1918 31.8508L41.1918 30.4308L42.1918 32.1508L39.9318 33.1708L42.1918 34.1508L41.1918 35.8708L39.1918 34.4308L39.4518 36.8308H37.4518Z" fill="#2F282E"/>
<path d="M3.56 55.9385L3.82 53.5385L1.82 54.9785L0.82 53.2585L3.04 52.2785L0.82 51.2585L1.82 49.5385L3.82 50.9785L3.56 48.5785H5.56L5.3 50.9585L7.3 49.5385L8.3 51.2585L6.04 52.2785L8.3 53.2585L7.3 54.9785L5.3 53.5385L5.56 55.9385H3.56Z" fill="#2F282E"/>
</svg>
