<svg width="189" height="63" viewBox="0 0 189 63" fill="none" xmlns="http://www.w3.org/2000/svg">
<path d="M73.1276 16.3538L73.3876 13.9538L71.3876 15.3938L70.3876 13.6738L72.6076 12.6938L70.3876 11.6738L71.3876 9.95378L73.3876 11.3938L73.1276 8.99378H75.1276L74.8676 11.3738L76.8676 9.95378L77.8676 11.6738L75.6076 12.6938L77.8676 13.6738L76.8676 15.3938L74.8676 13.9538L75.1276 16.3538H73.1276Z" fill="#2F282E"/>
<path d="M183.56 16.6L183.82 14.2L181.82 15.64L180.82 13.92L183.04 12.94L180.82 11.92L181.82 10.2L183.82 11.64L183.56 9.24H185.56L185.3 11.62L187.3 10.2L188.3 11.92L186.04 12.94L188.3 13.92L187.3 15.64L185.3 14.2L185.56 16.6H183.56Z" fill="#2F282E"/>
<path d="M126.56 56.6L126.82 54.2L124.82 55.64L123.82 53.92L126.04 52.94L123.82 51.92L124.82 50.2L126.82 51.64L126.56 49.24H128.56L128.3 51.62L130.3 50.2L131.3 51.92L129.04 52.94L131.3 53.92L130.3 55.64L128.3 54.2L128.56 56.6H126.56Z" fill="#2F282E"/>
<path d="M155.182 37.5846L155.442 35.1846L153.442 36.6246L152.442 34.9046L154.662 33.9246L152.442 32.9046L153.442 31.1846L155.442 32.6246L155.182 30.2246H157.182L156.922 32.6046L158.922 31.1846L159.922 32.9046L157.662 33.9246L159.922 34.9046L158.922 36.6246L156.922 35.1846L157.182 37.5846H155.182Z" fill="#2F282E"/>
<path d="M99.8843 37.5846L100.144 35.1846L98.1443 36.6246L97.1443 34.9046L99.3643 33.9246L97.1443 32.9046L98.1443 31.1846L100.144 32.6246L99.8843 30.2246H101.884L101.624 32.6046L103.624 31.1846L104.624 32.9046L102.364 33.9246L104.624 34.9046L103.624 36.6246L101.624 35.1846L101.884 37.5846H99.8843Z" fill="#2F282E"/>
<path d="M37.4519 37.5846L37.7119 35.1846L35.7119 36.6246L34.7119 34.9046L36.9319 33.9246L34.7119 32.9046L35.7119 31.1846L37.7119 32.6246L37.4519 30.2246H39.4519L39.1919 32.6046L41.1919 31.1846L42.1919 32.9046L39.9319 33.9246L42.1919 34.9046L41.1919 36.6246L39.1919 35.1846L39.4519 37.5846H37.4519Z" fill="#2F282E"/>
<path d="M3.56 56.6L3.82 54.2L1.82 55.64L0.82 53.92L3.04 52.94L0.82 51.92L1.82 50.2L3.82 51.64L3.56 49.24H5.56L5.3 51.62L7.3 50.2L8.3 51.92L6.04 52.94L8.3 53.92L7.3 55.64L5.3 54.2L5.56 56.6H3.56Z" fill="#2F282E"/>
</svg>
